<?xml version="1.0" encoding="utf-8"?><svg width="auto" height="2370" style="overflow:visible " version="1.1" xmlns="http://www.w3.org/2000/svg"><rect x="20" y="20" width="200" height="40" style="fill:white;stroke:black;stroke-width:1" /><text x="30" y="30" font-size="10" style="fill:blue">circuito</text><rect x="240" y="20" width="200" height="40" style="fill:white;stroke:black;stroke-width:1" /><text x="250" y="30" font-size="10" style="fill:blue">caracteristicas</text><path d="M220 40 C240 40 220 40 240 40" style="fill:transparent;stroke:black" /><rect x="460" y="20" width="200" height="40" style="fill:white;stroke:black;stroke-width:1" /><text x="470" y="30" font-size="10" style="fill:blue">caracteristica</text><path d="M440 40 C460 40 440 40 460 40" style="fill:transparent;stroke:black" /><text x="470" y="40" font-size="8" style="fill:black">nombre: Circuito Internacional de Losail</text><text x="470" y="50" font-size="8" style="fill:black">longitud: 5380 metros (3,375 millas)</text><text x="470" y="60" font-size="8" style="fill:black">anchura: 12 metro</text><text x="470" y="70" font-size="8" style="fill:black">localidad: Losail</text><text x="470" y="80" font-size="8" style="fill:black">pais: Qatar</text><rect x="240" y="120" width="200" height="40" style="fill:white;stroke:black;stroke-width:1" /><text x="250" y="130" font-size="10" style="fill:blue">carrera</text><path d="M220 40 C240 40 220 140 240 140" style="fill:transparent;stroke:black" /><rect x="460" y="120" width="200" height="40" style="fill:white;stroke:black;stroke-width:1" /><text x="470" y="130" font-size="10" style="fill:blue">infoCarrera</text><path d="M440 140 C460 140 440 140 460 140" style="fill:transparent;stroke:black" /><rect x="680" y="120" width="200" height="40" style="fill:white;stroke:black;stroke-width:1" /><text x="690" y="130" font-size="10" style="fill:blue">dato</text><path d="M660 140 C680 140 660 140 680 140" style="fill:transparent;stroke:black" /><text x="690" y="140" font-size="8" style="fill:black">info: Fecha: 29 de Noviembre 2024</text><rect x="680" y="170" width="200" height="40" style="fill:white;stroke:black;stroke-width:1" /><text x="690" y="180" font-size="10" style="fill:blue">dato</text><path d="M660 140 C680 140 660 190 680 190" style="fill:transparent;stroke:black" /><text x="690" y="190" font-size="8" style="fill:black">info: Hora Española: 19.00h</text><rect x="680" y="220" width="200" height="40" style="fill:white;stroke:black;stroke-width:1" /><text x="690" y="230" font-size="10" style="fill:blue">dato</text><path d="M660 140 C680 140 660 240 680 240" style="fill:transparent;stroke:black" /><text x="690" y="240" font-size="8" style="fill:black">info: Vueltas: 57</text><rect x="240" y="370" width="200" height="40" style="fill:white;stroke:black;stroke-width:1" /><text x="250" y="380" font-size="10" style="fill:blue">referencias</text><path d="M220 40 C240 40 220 390 240 390" style="fill:transparent;stroke:black" /><rect x="460" y="370" width="200" height="40" style="fill:white;stroke:black;stroke-width:1" /><text x="470" y="380" font-size="10" style="fill:blue">referencia</text><path d="M440 390 C460 390 440 390 460 390" style="fill:transparent;stroke:black" /><text x="470" y="390" font-size="8" style="fill:black">enlace: https://www.dazn.com/es-ES/news/motor/circuito-losail-donde-esta-como-es-caracteristicas-llegar-fotos-escenario-gp-qatar-mundial-f1-motogp/a6znflaka6np1p41ckoiz6f7j</text><rect x="460" y="420" width="200" height="40" style="fill:white;stroke:black;stroke-width:1" /><text x="470" y="430" font-size="10" style="fill:blue">referencia</text><path d="M440 390 C460 390 440 440 460 440" style="fill:transparent;stroke:black" /><text x="470" y="440" font-size="8" style="fill:black">enlace: https://en.wikipedia.org/wiki/Lusail_International_Circuit</text><rect x="460" y="470" width="200" height="40" style="fill:white;stroke:black;stroke-width:1" /><text x="470" y="480" font-size="10" style="fill:blue">referencia</text><path d="M440 390 C460 390 440 490 460 490" style="fill:transparent;stroke:black" /><text x="470" y="490" font-size="8" style="fill:black">enlace: https://www.circuitlosail.com/</text><rect x="240" y="570" width="200" height="40" style="fill:white;stroke:black;stroke-width:1" /><text x="250" y="580" font-size="10" style="fill:blue">galeria</text><path d="M220 40 C240 40 220 590 240 590" style="fill:transparent;stroke:black" /><rect x="460" y="570" width="200" height="40" style="fill:white;stroke:black;stroke-width:1" /><text x="470" y="580" font-size="10" style="fill:blue">foto</text><path d="M440 590 C460 590 440 590 460 590" style="fill:transparent;stroke:black" /><text x="470" y="590" font-size="8" style="fill:black">imagen: mapa</text><rect x="240" y="670" width="200" height="40" style="fill:white;stroke:black;stroke-width:1" /><text x="250" y="680" font-size="10" style="fill:blue">coordenadas</text><path d="M220 40 C240 40 220 690 240 690" style="fill:transparent;stroke:black" /><rect x="460" y="670" width="200" height="40" style="fill:white;stroke:black;stroke-width:1" /><text x="470" y="680" font-size="10" style="fill:blue">salida</text><path d="M440 690 C460 690 440 690 460 690" style="fill:transparent;stroke:black" /><text x="470" y="690" font-size="8" style="fill:black">latitud: 25º 29' 12'' N</text><text x="470" y="700" font-size="8" style="fill:black">longitud: 51º 27' 03'' E</text><text x="470" y="710" font-size="8" style="fill:black">altitud: 12,31 m</text><rect x="460" y="720" width="200" height="40" style="fill:white;stroke:black;stroke-width:1" /><text x="470" y="730" font-size="10" style="fill:blue">tramo</text><path d="M440 690 C460 690 440 740 460 740" style="fill:transparent;stroke:black" /><text x="470" y="740" font-size="8" style="fill:black">distancia: 430,03 m</text><text x="470" y="750" font-size="8" style="fill:black">coordenadas: 25º 29' 33''N 51º 26' 51''E</text><text x="470" y="760" font-size="8" style="fill:black">altitud: 11 m</text><text x="470" y="770" font-size="8" style="fill:black">sector: 1</text><rect x="460" y="770" width="200" height="40" style="fill:white;stroke:black;stroke-width:1" /><text x="470" y="780" font-size="10" style="fill:blue">tramo</text><path d="M440 690 C460 690 440 790 460 790" style="fill:transparent;stroke:black" /><text x="470" y="790" font-size="8" style="fill:black">distancia: 280,39 m</text><text x="470" y="800" font-size="8" style="fill:black">coordenadas: 25º 29' 35''N 51º 26' 55''E</text><text x="470" y="810" font-size="8" style="fill:black">altitud: 11 m</text><text x="470" y="820" font-size="8" style="fill:black">sector: 1</text><rect x="460" y="820" width="200" height="40" style="fill:white;stroke:black;stroke-width:1" /><text x="470" y="830" font-size="10" style="fill:blue">tramo</text><path d="M440 690 C460 690 440 840 460 840" style="fill:transparent;stroke:black" /><text x="470" y="840" font-size="8" style="fill:black">distancia: 140,37 m</text><text x="470" y="850" font-size="8" style="fill:black">coordenadas: 25º 29' 33''N 51º 26' 59''E</text><text x="470" y="860" font-size="8" style="fill:black">altitud: 10 m</text><text x="470" y="870" font-size="8" style="fill:black">sector: 1</text><rect x="460" y="870" width="200" height="40" style="fill:white;stroke:black;stroke-width:1" /><text x="470" y="880" font-size="10" style="fill:blue">tramo</text><path d="M440 690 C460 690 440 890 460 890" style="fill:transparent;stroke:black" /><text x="470" y="890" font-size="8" style="fill:black">distancia: 141,65 m</text><text x="470" y="900" font-size="8" style="fill:black">coordenadas: 25º 29' 35''N 51º 27' 02''E</text><text x="470" y="910" font-size="8" style="fill:black">altitud: 11 m</text><text x="470" y="920" font-size="8" style="fill:black">sector: 1</text><rect x="460" y="920" width="200" height="40" style="fill:white;stroke:black;stroke-width:1" /><text x="470" y="930" font-size="10" style="fill:blue">tramo</text><path d="M440 690 C460 690 440 940 460 940" style="fill:transparent;stroke:black" /><text x="470" y="940" font-size="8" style="fill:black">distancia: 96,49 m</text><text x="470" y="950" font-size="8" style="fill:black">coordenadas: 25º 29' 38''N 51º 27' 02''E</text><text x="470" y="960" font-size="8" style="fill:black">altitud: 11 m</text><text x="470" y="970" font-size="8" style="fill:black">sector: 1</text><rect x="460" y="970" width="200" height="40" style="fill:white;stroke:black;stroke-width:1" /><text x="470" y="980" font-size="10" style="fill:blue">tramo</text><path d="M440 690 C460 690 440 990 460 990" style="fill:transparent;stroke:black" /><text x="470" y="990" font-size="8" style="fill:black">distancia: 119,66 m</text><text x="470" y="1000" font-size="8" style="fill:black">coordenadas: 25º 29' 41''N 51º 27' 03''E</text><text x="470" y="1010" font-size="8" style="fill:black">altitud: 11 m</text><text x="470" y="1020" font-size="8" style="fill:black">sector: 1</text><rect x="460" y="1020" width="200" height="40" style="fill:white;stroke:black;stroke-width:1" /><text x="470" y="1030" font-size="10" style="fill:blue">tramo</text><path d="M440 690 C460 690 440 1040 460 1040" style="fill:transparent;stroke:black" /><text x="470" y="1040" font-size="8" style="fill:black">distancia: 290,54 m</text><text x="470" y="1050" font-size="8" style="fill:black">coordenadas: 25º 29' 49''N 51º 27' 12''E</text><text x="470" y="1060" font-size="8" style="fill:black">altitud: 10 m</text><text x="470" y="1070" font-size="8" style="fill:black">sector: 1</text><rect x="460" y="1070" width="200" height="40" style="fill:white;stroke:black;stroke-width:1" /><text x="470" y="1080" font-size="10" style="fill:blue">tramo</text><path d="M440 690 C460 690 440 1090 460 1090" style="fill:transparent;stroke:black" /><text x="470" y="1090" font-size="8" style="fill:black">distancia: 115,33 m</text><text x="470" y="1100" font-size="8" style="fill:black">coordenadas: 25º 29' 49''N 51º 27' 11''E</text><text x="470" y="1110" font-size="8" style="fill:black">altitud: 10 m</text><text x="470" y="1120" font-size="8" style="fill:black">sector: 1</text><rect x="460" y="1120" width="200" height="40" style="fill:white;stroke:black;stroke-width:1" /><text x="470" y="1130" font-size="10" style="fill:blue">tramo</text><path d="M440 690 C460 690 440 1140 460 1140" style="fill:transparent;stroke:black" /><text x="470" y="1140" font-size="8" style="fill:black">distancia: 75,45 m</text><text x="470" y="1150" font-size="8" style="fill:black">coordenadas: 25º 29' 47''N 51º 27' 16''E</text><text x="470" y="1160" font-size="8" style="fill:black">altitud: 10 m</text><text x="470" y="1170" font-size="8" style="fill:black">sector: 1</text><rect x="460" y="1170" width="200" height="40" style="fill:white;stroke:black;stroke-width:1" /><text x="470" y="1180" font-size="10" style="fill:blue">tramo</text><path d="M440 690 C460 690 440 1190 460 1190" style="fill:transparent;stroke:black" /><text x="470" y="1190" font-size="8" style="fill:black">distancia: 92,96 m</text><text x="470" y="1200" font-size="8" style="fill:black">coordenadas: 25º 29' 44''N 51º 27' 16''E</text><text x="470" y="1210" font-size="8" style="fill:black">altitud: 11 m</text><text x="470" y="1220" font-size="8" style="fill:black">sector: 1</text><rect x="460" y="1220" width="200" height="40" style="fill:white;stroke:black;stroke-width:1" /><text x="470" y="1230" font-size="10" style="fill:blue">tramo</text><path d="M440 690 C460 690 440 1240 460 1240" style="fill:transparent;stroke:black" /><text x="470" y="1240" font-size="8" style="fill:black">distancia: 111,59 m</text><text x="470" y="1250" font-size="8" style="fill:black">coordenadas: 25º 29' 41''N 51º 27' 13''E</text><text x="470" y="1260" font-size="8" style="fill:black">altitud: 11 m</text><text x="470" y="1270" font-size="8" style="fill:black">sector: 1</text><rect x="460" y="1270" width="200" height="40" style="fill:white;stroke:black;stroke-width:1" /><text x="470" y="1280" font-size="10" style="fill:blue">tramo</text><path d="M440 690 C460 690 440 1290 460 1290" style="fill:transparent;stroke:black" /><text x="470" y="1290" font-size="8" style="fill:black">distancia: 99,73 m</text><text x="470" y="1300" font-size="8" style="fill:black">coordenadas: 25º 29' 39''N 51º 27' 11''E</text><text x="470" y="1310" font-size="8" style="fill:black">altitud: 11 m</text><text x="470" y="1320" font-size="8" style="fill:black">sector: 2</text><rect x="460" y="1320" width="200" height="40" style="fill:white;stroke:black;stroke-width:1" /><text x="470" y="1330" font-size="10" style="fill:blue">tramo</text><path d="M440 690 C460 690 440 1340 460 1340" style="fill:transparent;stroke:black" /><text x="470" y="1340" font-size="8" style="fill:black">distancia: 91 m</text><text x="470" y="1350" font-size="8" style="fill:black">coordenadas: 25º 29' 38''N 51º 27' 12''E</text><text x="470" y="1360" font-size="8" style="fill:black">altitud: 12 m</text><text x="470" y="1370" font-size="8" style="fill:black">sector: 2</text><rect x="460" y="1370" width="200" height="40" style="fill:white;stroke:black;stroke-width:1" /><text x="470" y="1380" font-size="10" style="fill:blue">tramo</text><path d="M440 690 C460 690 440 1390 460 1390" style="fill:transparent;stroke:black" /><text x="470" y="1390" font-size="8" style="fill:black">distancia: 275,94 m</text><text x="470" y="1400" font-size="8" style="fill:black">coordenadas: 25º 29' 41''N 51º 27' 22''E</text><text x="470" y="1410" font-size="8" style="fill:black">altitud: 12 m</text><text x="470" y="1420" font-size="8" style="fill:black">sector: 2</text><rect x="460" y="1420" width="200" height="40" style="fill:white;stroke:black;stroke-width:1" /><text x="470" y="1430" font-size="10" style="fill:blue">tramo</text><path d="M440 690 C460 690 440 1440 460 1440" style="fill:transparent;stroke:black" /><text x="470" y="1440" font-size="8" style="fill:black">distancia: 200,07 m</text><text x="470" y="1450" font-size="8" style="fill:black">coordenadas: 25º 29' 37''N 51º 27' 23''E</text><text x="470" y="1460" font-size="8" style="fill:black">altitud: 12 m</text><text x="470" y="1470" font-size="8" style="fill:black">sector: 2</text><rect x="460" y="1470" width="200" height="40" style="fill:white;stroke:black;stroke-width:1" /><text x="470" y="1480" font-size="10" style="fill:blue">tramo</text><path d="M440 690 C460 690 440 1490 460 1490" style="fill:transparent;stroke:black" /><text x="470" y="1490" font-size="8" style="fill:black">distancia: 178,68 m</text><text x="470" y="1500" font-size="8" style="fill:black">coordenadas: 25º 29' 32''N 51º 27' 20''E</text><text x="470" y="1510" font-size="8" style="fill:black">altitud: 11 m</text><text x="470" y="1520" font-size="8" style="fill:black">sector: 2</text><rect x="460" y="1520" width="200" height="40" style="fill:white;stroke:black;stroke-width:1" /><text x="470" y="1530" font-size="10" style="fill:blue">tramo</text><path d="M440 690 C460 690 440 1540 460 1540" style="fill:transparent;stroke:black" /><text x="470" y="1540" font-size="8" style="fill:black">distancia: 98,65 m</text><text x="470" y="1550" font-size="8" style="fill:black">coordenadas: 25º 29' 30''N 51º 27' 18''E</text><text x="470" y="1560" font-size="8" style="fill:black">altitud: 11 m</text><text x="470" y="1570" font-size="8" style="fill:black">sector: 2</text><rect x="460" y="1570" width="200" height="40" style="fill:white;stroke:black;stroke-width:1" /><text x="470" y="1580" font-size="10" style="fill:blue">tramo</text><path d="M440 690 C460 690 440 1590 460 1590" style="fill:transparent;stroke:black" /><text x="470" y="1590" font-size="8" style="fill:black">distancia: 121,02 m</text><text x="470" y="1600" font-size="8" style="fill:black">coordenadas: 25º 29' 29''N 51º 27' 13''E</text><text x="470" y="1610" font-size="8" style="fill:black">altitud: 11 m</text><text x="470" y="1620" font-size="8" style="fill:black">sector: 2</text><rect x="460" y="1620" width="200" height="40" style="fill:white;stroke:black;stroke-width:1" /><text x="470" y="1630" font-size="10" style="fill:blue">tramo</text><path d="M440 690 C460 690 440 1640 460 1640" style="fill:transparent;stroke:black" /><text x="470" y="1640" font-size="8" style="fill:black">distancia: 116,87 m</text><text x="470" y="1650" font-size="8" style="fill:black">coordenadas: 25º 29' 26''N 51º 27' 13''E</text><text x="470" y="1660" font-size="8" style="fill:black">altitud: 11 m</text><text x="470" y="1670" font-size="8" style="fill:black">sector: 2</text><rect x="460" y="1670" width="200" height="40" style="fill:white;stroke:black;stroke-width:1" /><text x="470" y="1680" font-size="10" style="fill:blue">tramo</text><path d="M440 690 C460 690 440 1690 460 1690" style="fill:transparent;stroke:black" /><text x="470" y="1690" font-size="8" style="fill:black">distancia: 375,77 m</text><text x="470" y="1700" font-size="8" style="fill:black">coordenadas: 25º 29' 24''N 51º 27' 24''E</text><text x="470" y="1710" font-size="8" style="fill:black">altitud: 12 m</text><text x="470" y="1720" font-size="8" style="fill:black">sector: 2</text><rect x="460" y="1720" width="200" height="40" style="fill:white;stroke:black;stroke-width:1" /><text x="470" y="1730" font-size="10" style="fill:blue">tramo</text><path d="M440 690 C460 690 440 1740 460 1740" style="fill:transparent;stroke:black" /><text x="470" y="1740" font-size="8" style="fill:black">distancia: 121,33 m</text><text x="470" y="1750" font-size="8" style="fill:black">coordenadas: 25º 29' 22''N 51º 27' 33''E</text><text x="470" y="1760" font-size="8" style="fill:black">altitud: 12 m</text><text x="470" y="1770" font-size="8" style="fill:black">sector: 3</text><rect x="460" y="1770" width="200" height="40" style="fill:white;stroke:black;stroke-width:1" /><text x="470" y="1780" font-size="10" style="fill:blue">tramo</text><path d="M440 690 C460 690 440 1790 460 1790" style="fill:transparent;stroke:black" /><text x="470" y="1790" font-size="8" style="fill:black">distancia: 109,8 m</text><text x="470" y="1800" font-size="8" style="fill:black">coordenadas: 25º 29' 22''N 51º 27' 33''E</text><text x="470" y="1810" font-size="8" style="fill:black">altitud: 12 m</text><text x="470" y="1820" font-size="8" style="fill:black">sector: 3</text><rect x="460" y="1820" width="200" height="40" style="fill:white;stroke:black;stroke-width:1" /><text x="470" y="1830" font-size="10" style="fill:blue">tramo</text><path d="M440 690 C460 690 440 1840 460 1840" style="fill:transparent;stroke:black" /><text x="470" y="1840" font-size="8" style="fill:black">distancia: 103,16 m</text><text x="470" y="1850" font-size="8" style="fill:black">coordenadas: 25º 29' 19''N 51º 27' 35''E</text><text x="470" y="1860" font-size="8" style="fill:black">altitud: 12 m</text><text x="470" y="1870" font-size="8" style="fill:black">sector: 3</text><rect x="460" y="1870" width="200" height="40" style="fill:white;stroke:black;stroke-width:1" /><text x="470" y="1880" font-size="10" style="fill:blue">tramo</text><path d="M440 690 C460 690 440 1890 460 1890" style="fill:transparent;stroke:black" /><text x="470" y="1890" font-size="8" style="fill:black">distancia: 88,62 m</text><text x="470" y="1900" font-size="8" style="fill:black">coordenadas: 25º 29' 20''N 51º 27' 34''E</text><text x="470" y="1910" font-size="8" style="fill:black">altitud: 12 m</text><text x="470" y="1920" font-size="8" style="fill:black">sector: 3</text><rect x="460" y="1920" width="200" height="40" style="fill:white;stroke:black;stroke-width:1" /><text x="470" y="1930" font-size="10" style="fill:blue">tramo</text><path d="M440 690 C460 690 440 1940 460 1940" style="fill:transparent;stroke:black" /><text x="470" y="1940" font-size="8" style="fill:black">distancia: 126,7 m</text><text x="470" y="1950" font-size="8" style="fill:black">coordenadas: 25º 29' 13''N 51º 27' 32''E</text><text x="470" y="1960" font-size="8" style="fill:black">altitud: 13 m</text><text x="470" y="1970" font-size="8" style="fill:black">sector: 3</text><rect x="460" y="1970" width="200" height="40" style="fill:white;stroke:black;stroke-width:1" /><text x="470" y="1980" font-size="10" style="fill:blue">tramo</text><path d="M440 690 C460 690 440 1990 460 1990" style="fill:transparent;stroke:black" /><text x="470" y="1990" font-size="8" style="fill:black">distancia: 80,3 m</text><text x="470" y="2000" font-size="8" style="fill:black">coordenadas: 25º 29' 12''N 51º 27' 30''E</text><text x="470" y="2010" font-size="8" style="fill:black">altitud: 13 m</text><text x="470" y="2020" font-size="8" style="fill:black">sector: 3</text><rect x="460" y="2020" width="200" height="40" style="fill:white;stroke:black;stroke-width:1" /><text x="470" y="2030" font-size="10" style="fill:blue">tramo</text><path d="M440 690 C460 690 440 2040 460 2040" style="fill:transparent;stroke:black" /><text x="470" y="2040" font-size="8" style="fill:black">distancia: 233,33 m</text><text x="470" y="2050" font-size="8" style="fill:black">coordenadas: 25º 29' 14''N 51º 27' 22''E</text><text x="470" y="2060" font-size="8" style="fill:black">altitud: 13 m</text><text x="470" y="2070" font-size="8" style="fill:black">sector: 3</text><rect x="460" y="2070" width="200" height="40" style="fill:white;stroke:black;stroke-width:1" /><text x="470" y="2080" font-size="10" style="fill:blue">tramo</text><path d="M440 690 C460 690 440 2090 460 2090" style="fill:transparent;stroke:black" /><text x="470" y="2090" font-size="8" style="fill:black">distancia: 104,77 m</text><text x="470" y="2100" font-size="8" style="fill:black">coordenadas: 25º 29' 12''N 51º 27' 19''E</text><text x="470" y="2110" font-size="8" style="fill:black">altitud: 13 m</text><text x="470" y="2120" font-size="8" style="fill:black">sector: 3</text><rect x="460" y="2120" width="200" height="40" style="fill:white;stroke:black;stroke-width:1" /><text x="470" y="2130" font-size="10" style="fill:blue">tramo</text><path d="M440 690 C460 690 440 2140 460 2140" style="fill:transparent;stroke:black" /><text x="470" y="2140" font-size="8" style="fill:black">distancia: 342,34 m</text><text x="470" y="2150" font-size="8" style="fill:black">coordenadas: 25º 29' 02''N 51º 27' 13''E</text><text x="470" y="2160" font-size="8" style="fill:black">altitud: 13 m</text><text x="470" y="2170" font-size="8" style="fill:black">sector: 3</text><rect x="460" y="2170" width="200" height="40" style="fill:white;stroke:black;stroke-width:1" /><text x="470" y="2180" font-size="10" style="fill:blue">tramo</text><path d="M440 690 C460 690 440 2190 460 2190" style="fill:transparent;stroke:black" /><text x="470" y="2190" font-size="8" style="fill:black">distancia: 135,4 m</text><text x="470" y="2200" font-size="8" style="fill:black">coordenadas: 25º 29' 02''N 51º 27' 09''E</text><text x="470" y="2210" font-size="8" style="fill:black">altitud: 14 m</text><text x="470" y="2220" font-size="8" style="fill:black">sector: 3</text><rect x="460" y="2220" width="200" height="40" style="fill:white;stroke:black;stroke-width:1" /><text x="470" y="2230" font-size="10" style="fill:blue">tramo</text><path d="M440 690 C460 690 440 2240 460 2240" style="fill:transparent;stroke:black" /><text x="470" y="2240" font-size="8" style="fill:black">distancia: 643,62 m</text><text x="470" y="2250" font-size="8" style="fill:black">coordenadas: 25º 29' 21''N 51º 26' 58''E</text><text x="470" y="2260" font-size="8" style="fill:black">altitud: 12 m</text><text x="470" y="2270" font-size="8" style="fill:black">sector: 3</text></svg>