<?xml version="1.0" encoding="utf-8"?><svg width="5000" height="300" xmlns="http://www.w3.org/2000/svg">
  <polyline points="30.0,174.0 70.5,184.5 111.0,195.0 151.5,195.0 192.0,195.0 232.5,195.0 273.0,184.5 313.5,195.0 354.0,184.5 394.5,195.0 435.0,195.0 475.5,195.0 516.0,195.0 556.5,195.0 597.0,195.0 637.5,195.0 678.0,184.5 718.5,184.5 759.0,184.5 799.5,184.5 840.0,184.5 880.5,195.0 921.0,195.0 961.5,195.0 1002.0,195.0 1042.5,195.0 1083.0,195.0 1123.5,195.0 1164.0,195.0 1204.5,195.0 1245.0,195.0 1285.5,195.0 1326.0,184.5 1366.5,184.5 1407.0,184.5 1447.5,174.0 1488.0,184.5 1528.5,174.0 1569.0,184.5 1609.5,184.5 1650.0,184.5 1690.5,184.5 1731.0,174.0 1771.5,174.0 1812.0,174.0 1852.5,174.0 1893.0,174.0 1933.5,174.0 1974.0,174.0 2014.5,174.0 2055.0,174.0 2095.5,174.0 2136.0,174.0 2176.5,174.0 2217.0,184.5 2257.5,184.5 2298.0,184.5 2338.5,184.5 2379.0,184.5 2419.5,184.5 2460.0,184.5 2500.5,184.5 2541.0,184.5 2581.5,184.5 2622.0,184.5 2662.5,184.5 2703.0,184.5 2743.5,184.5 2784.0,184.5 2824.5,184.5 2865.0,184.5 2905.5,184.5 2946.0,174.0 2986.5,174.0 3027.0,174.0 3067.5,174.0 3108.0,174.0 3148.5,174.0 3189.0,174.0 3229.5,174.0 3270.0,174.0 3310.5,174.0 3351.0,174.0 3391.5,174.0 3432.0,174.0 3472.5,174.0 3513.0,174.0 3553.5,174.0 3594.0,174.0 3634.5,174.0 3675.0,174.0 3715.5,174.0 3756.0,174.0 3796.5,174.0 3837.0,174.0 3877.5,163.5 3918.0,163.5 3958.5,163.5 3999.0,163.5 4039.5,163.5 4080.0,163.5 4120.5,163.5 4161.0,163.5 4201.5,163.5 4242.0,174.0 4282.5,174.0 4323.0,174.0 4363.5,163.5 4404.0,174.0 4444.5,163.5 4485.0,163.5 4525.5,163.5 4566.0,163.5 4606.5,163.5 4647.0,163.5 4687.5,163.5 4728.0,153.0 4768.5,153.0 4809.0,153.0 4849.5,153.0 4890.0,153.0 4930.5,174.0" stroke="blue" stroke-width="2" fill="none"/>
  <text x="30.0" y="174.0" style="writing-mode: tb; glyph-orientation-vertical: 0;">
  12.0m (0.0m)
  </text>
  <text x="70.5" y="184.5" style="writing-mode: tb; glyph-orientation-vertical: 0;">
  11m (430.07m)
  </text>
  <text x="111.0" y="195.0" style="writing-mode: tb; glyph-orientation-vertical: 0;">
  10m (464.69m)
  </text>
  <text x="151.5" y="195.0" style="writing-mode: tb; glyph-orientation-vertical: 0;">
  10m (496.12m)
  </text>
  <text x="192.0" y="195.0" style="writing-mode: tb; glyph-orientation-vertical: 0;">
  10m (521.47m)
  </text>
  <text x="232.5" y="195.0" style="writing-mode: tb; glyph-orientation-vertical: 0;">
  10m (550.5m)
  </text>
  <text x="273.0" y="184.5" style="writing-mode: tb; glyph-orientation-vertical: 0;">
  11m (576.87m)
  </text>
  <text x="313.5" y="195.0" style="writing-mode: tb; glyph-orientation-vertical: 0;">
  10m (606.58m)
  </text>
  <text x="354.0" y="184.5" style="writing-mode: tb; glyph-orientation-vertical: 0;">
  11m (746.95m)
  </text>
  <text x="394.5" y="195.0" style="writing-mode: tb; glyph-orientation-vertical: 0;">
  10m (756.57m)
  </text>
  <text x="435.0" y="195.0" style="writing-mode: tb; glyph-orientation-vertical: 0;">
  10m (775.18m)
  </text>
  <text x="475.5" y="195.0" style="writing-mode: tb; glyph-orientation-vertical: 0;">
  10m (791.13m)
  </text>
  <text x="516.0" y="195.0" style="writing-mode: tb; glyph-orientation-vertical: 0;">
  10m (805.97m)
  </text>
  <text x="556.5" y="195.0" style="writing-mode: tb; glyph-orientation-vertical: 0;">
  10m (818.85m)
  </text>
  <text x="597.0" y="195.0" style="writing-mode: tb; glyph-orientation-vertical: 0;">
  10m (833.67m)
  </text>
  <text x="637.5" y="195.0" style="writing-mode: tb; glyph-orientation-vertical: 0;">
  10m (848.63m)
  </text>
  <text x="678.0" y="184.5" style="writing-mode: tb; glyph-orientation-vertical: 0;">
  11m (864.91m)
  </text>
  <text x="718.5" y="184.5" style="writing-mode: tb; glyph-orientation-vertical: 0;">
  11m (887.51m)
  </text>
  <text x="759.0" y="184.5" style="writing-mode: tb; glyph-orientation-vertical: 0;">
  11m (974.43m)
  </text>
  <text x="799.5" y="184.5" style="writing-mode: tb; glyph-orientation-vertical: 0;">
  11m (1015.89m)
  </text>
  <text x="840.0" y="184.5" style="writing-mode: tb; glyph-orientation-vertical: 0;">
  11m (1043.24m)
  </text>
  <text x="880.5" y="195.0" style="writing-mode: tb; glyph-orientation-vertical: 0;">
  10m (1071.12m)
  </text>
  <text x="921.0" y="195.0" style="writing-mode: tb; glyph-orientation-vertical: 0;">
  10m (1083.6m)
  </text>
  <text x="961.5" y="195.0" style="writing-mode: tb; glyph-orientation-vertical: 0;">
  10m (1374.14m)
  </text>
  <text x="1002.0" y="195.0" style="writing-mode: tb; glyph-orientation-vertical: 0;">
  10m (1396.75m)
  </text>
  <text x="1042.5" y="195.0" style="writing-mode: tb; glyph-orientation-vertical: 0;">
  10m (1423.53m)
  </text>
  <text x="1083.0" y="195.0" style="writing-mode: tb; glyph-orientation-vertical: 0;">
  10m (1445.44m)
  </text>
  <text x="1123.5" y="195.0" style="writing-mode: tb; glyph-orientation-vertical: 0;">
  10m (1468.26m)
  </text>
  <text x="1164.0" y="195.0" style="writing-mode: tb; glyph-orientation-vertical: 0;">
  10m (1489.51m)
  </text>
  <text x="1204.5" y="195.0" style="writing-mode: tb; glyph-orientation-vertical: 0;">
  10m (1561.09m)
  </text>
  <text x="1245.0" y="195.0" style="writing-mode: tb; glyph-orientation-vertical: 0;">
  10m (1577.36m)
  </text>
  <text x="1285.5" y="195.0" style="writing-mode: tb; glyph-orientation-vertical: 0;">
  10m (1598.0m)
  </text>
  <text x="1326.0" y="184.5" style="writing-mode: tb; glyph-orientation-vertical: 0;">
  11m (1619.58m)
  </text>
  <text x="1366.5" y="184.5" style="writing-mode: tb; glyph-orientation-vertical: 0;">
  11m (1637.58m)
  </text>
  <text x="1407.0" y="184.5" style="writing-mode: tb; glyph-orientation-vertical: 0;">
  11m (1653.08m)
  </text>
  <text x="1447.5" y="174.0" style="writing-mode: tb; glyph-orientation-vertical: 0;">
  12m (1764.67m)
  </text>
  <text x="1488.0" y="184.5" style="writing-mode: tb; glyph-orientation-vertical: 0;">
  11m (1863.99m)
  </text>
  <text x="1528.5" y="174.0" style="writing-mode: tb; glyph-orientation-vertical: 0;">
  12m (1874.05m)
  </text>
  <text x="1569.0" y="184.5" style="writing-mode: tb; glyph-orientation-vertical: 0;">
  11m (1885.89m)
  </text>
  <text x="1609.5" y="184.5" style="writing-mode: tb; glyph-orientation-vertical: 0;">
  11m (1897.8m)
  </text>
  <text x="1650.0" y="184.5" style="writing-mode: tb; glyph-orientation-vertical: 0;">
  11m (1910.85m)
  </text>
  <text x="1690.5" y="184.5" style="writing-mode: tb; glyph-orientation-vertical: 0;">
  11m (1923.92m)
  </text>
  <text x="1731.0" y="174.0" style="writing-mode: tb; glyph-orientation-vertical: 0;">
  12m (1936.76m)
  </text>
  <text x="1771.5" y="174.0" style="writing-mode: tb; glyph-orientation-vertical: 0;">
  12m (1954.48m)
  </text>
  <text x="1812.0" y="174.0" style="writing-mode: tb; glyph-orientation-vertical: 0;">
  12m (2230.42m)
  </text>
  <text x="1852.5" y="174.0" style="writing-mode: tb; glyph-orientation-vertical: 0;">
  12m (2245.15m)
  </text>
  <text x="1893.0" y="174.0" style="writing-mode: tb; glyph-orientation-vertical: 0;">
  12m (2263.3m)
  </text>
  <text x="1933.5" y="174.0" style="writing-mode: tb; glyph-orientation-vertical: 0;">
  12m (2286.81m)
  </text>
  <text x="1974.0" y="174.0" style="writing-mode: tb; glyph-orientation-vertical: 0;">
  12m (2311.53m)
  </text>
  <text x="2014.5" y="174.0" style="writing-mode: tb; glyph-orientation-vertical: 0;">
  12m (2339.09m)
  </text>
  <text x="2055.0" y="174.0" style="writing-mode: tb; glyph-orientation-vertical: 0;">
  12m (2362.54m)
  </text>
  <text x="2095.5" y="174.0" style="writing-mode: tb; glyph-orientation-vertical: 0;">
  12m (2382.2m)
  </text>
  <text x="2136.0" y="174.0" style="writing-mode: tb; glyph-orientation-vertical: 0;">
  12m (2401.44m)
  </text>
  <text x="2176.5" y="174.0" style="writing-mode: tb; glyph-orientation-vertical: 0;">
  12m (2430.3m)
  </text>
  <text x="2217.0" y="184.5" style="writing-mode: tb; glyph-orientation-vertical: 0;">
  11m (2456.17m)
  </text>
  <text x="2257.5" y="184.5" style="writing-mode: tb; glyph-orientation-vertical: 0;">
  11m (2514.23m)
  </text>
  <text x="2298.0" y="184.5" style="writing-mode: tb; glyph-orientation-vertical: 0;">
  11m (2549.0m)
  </text>
  <text x="2338.5" y="184.5" style="writing-mode: tb; glyph-orientation-vertical: 0;">
  11m (2583.72m)
  </text>
  <text x="2379.0" y="184.5" style="writing-mode: tb; glyph-orientation-vertical: 0;">
  11m (2609.59m)
  </text>
  <text x="2419.5" y="184.5" style="writing-mode: tb; glyph-orientation-vertical: 0;">
  11m (2628.95m)
  </text>
  <text x="2460.0" y="184.5" style="writing-mode: tb; glyph-orientation-vertical: 0;">
  11m (2645.79m)
  </text>
  <text x="2500.5" y="184.5" style="writing-mode: tb; glyph-orientation-vertical: 0;">
  11m (2663.86m)
  </text>
  <text x="2541.0" y="184.5" style="writing-mode: tb; glyph-orientation-vertical: 0;">
  11m (2686.56m)
  </text>
  <text x="2581.5" y="184.5" style="writing-mode: tb; glyph-orientation-vertical: 0;">
  11m (2709.32m)
  </text>
  <text x="2622.0" y="184.5" style="writing-mode: tb; glyph-orientation-vertical: 0;">
  11m (2830.34m)
  </text>
  <text x="2662.5" y="184.5" style="writing-mode: tb; glyph-orientation-vertical: 0;">
  11m (2846.9m)
  </text>
  <text x="2703.0" y="184.5" style="writing-mode: tb; glyph-orientation-vertical: 0;">
  11m (2870.97m)
  </text>
  <text x="2743.5" y="184.5" style="writing-mode: tb; glyph-orientation-vertical: 0;">
  11m (2891.63m)
  </text>
  <text x="2784.0" y="184.5" style="writing-mode: tb; glyph-orientation-vertical: 0;">
  11m (2912.58m)
  </text>
  <text x="2824.5" y="184.5" style="writing-mode: tb; glyph-orientation-vertical: 0;">
  11m (2932.67m)
  </text>
  <text x="2865.0" y="184.5" style="writing-mode: tb; glyph-orientation-vertical: 0;">
  11m (2947.46m)
  </text>
  <text x="2905.5" y="184.5" style="writing-mode: tb; glyph-orientation-vertical: 0;">
  11m (2995.55m)
  </text>
  <text x="2946.0" y="174.0" style="writing-mode: tb; glyph-orientation-vertical: 0;">
  12m (3035.3m)
  </text>
  <text x="2986.5" y="174.0" style="writing-mode: tb; glyph-orientation-vertical: 0;">
  12m (3068.99m)
  </text>
  <text x="3027.0" y="174.0" style="writing-mode: tb; glyph-orientation-vertical: 0;">
  12m (3101.22m)
  </text>
  <text x="3067.5" y="174.0" style="writing-mode: tb; glyph-orientation-vertical: 0;">
  12m (3132.32m)
  </text>
  <text x="3108.0" y="174.0" style="writing-mode: tb; glyph-orientation-vertical: 0;">
  12m (3159.1m)
  </text>
  <text x="3148.5" y="174.0" style="writing-mode: tb; glyph-orientation-vertical: 0;">
  12m (3192.9m)
  </text>
  <text x="3189.0" y="174.0" style="writing-mode: tb; glyph-orientation-vertical: 0;">
  12m (3222.85m)
  </text>
  <text x="3229.5" y="174.0" style="writing-mode: tb; glyph-orientation-vertical: 0;">
  12m (3322.12m)
  </text>
  <text x="3270.0" y="174.0" style="writing-mode: tb; glyph-orientation-vertical: 0;">
  12m (3443.45m)
  </text>
  <text x="3310.5" y="174.0" style="writing-mode: tb; glyph-orientation-vertical: 0;">
  12m (3462.47m)
  </text>
  <text x="3351.0" y="174.0" style="writing-mode: tb; glyph-orientation-vertical: 0;">
  12m (3479.55m)
  </text>
  <text x="3391.5" y="174.0" style="writing-mode: tb; glyph-orientation-vertical: 0;">
  12m (3494.4m)
  </text>
  <text x="3432.0" y="174.0" style="writing-mode: tb; glyph-orientation-vertical: 0;">
  12m (3510.15m)
  </text>
  <text x="3472.5" y="174.0" style="writing-mode: tb; glyph-orientation-vertical: 0;">
  12m (3524.1m)
  </text>
  <text x="3513.0" y="174.0" style="writing-mode: tb; glyph-orientation-vertical: 0;">
  12m (3538.56m)
  </text>
  <text x="3553.5" y="174.0" style="writing-mode: tb; glyph-orientation-vertical: 0;">
  12m (3553.3m)
  </text>
  <text x="3594.0" y="174.0" style="writing-mode: tb; glyph-orientation-vertical: 0;">
  12m (3655.74m)
  </text>
  <text x="3634.5" y="174.0" style="writing-mode: tb; glyph-orientation-vertical: 0;">
  12m (3671.1m)
  </text>
  <text x="3675.0" y="174.0" style="writing-mode: tb; glyph-orientation-vertical: 0;">
  12m (3684.53m)
  </text>
  <text x="3715.5" y="174.0" style="writing-mode: tb; glyph-orientation-vertical: 0;">
  12m (3699.27m)
  </text>
  <text x="3756.0" y="174.0" style="writing-mode: tb; glyph-orientation-vertical: 0;">
  12m (3714.04m)
  </text>
  <text x="3796.5" y="174.0" style="writing-mode: tb; glyph-orientation-vertical: 0;">
  12m (3728.69m)
  </text>
  <text x="3837.0" y="174.0" style="writing-mode: tb; glyph-orientation-vertical: 0;">
  12m (3743.91m)
  </text>
  <text x="3877.5" y="163.5" style="writing-mode: tb; glyph-orientation-vertical: 0;">
  13m (3870.61m)
  </text>
  <text x="3918.0" y="163.5" style="writing-mode: tb; glyph-orientation-vertical: 0;">
  13m (3885.08m)
  </text>
  <text x="3958.5" y="163.5" style="writing-mode: tb; glyph-orientation-vertical: 0;">
  13m (3898.99m)
  </text>
  <text x="3999.0" y="163.5" style="writing-mode: tb; glyph-orientation-vertical: 0;">
  13m (3912.73m)
  </text>
  <text x="4039.5" y="163.5" style="writing-mode: tb; glyph-orientation-vertical: 0;">
  13m (3927.21m)
  </text>
  <text x="4080.0" y="163.5" style="writing-mode: tb; glyph-orientation-vertical: 0;">
  13m (3940.05m)
  </text>
  <text x="4120.5" y="163.5" style="writing-mode: tb; glyph-orientation-vertical: 0;">
  13m (3951.85m)
  </text>
  <text x="4161.0" y="163.5" style="writing-mode: tb; glyph-orientation-vertical: 0;">
  13m (4185.18m)
  </text>
  <text x="4201.5" y="163.5" style="writing-mode: tb; glyph-orientation-vertical: 0;">
  13m (4203.61m)
  </text>
  <text x="4242.0" y="174.0" style="writing-mode: tb; glyph-orientation-vertical: 0;">
  12m (4221.91m)
  </text>
  <text x="4282.5" y="174.0" style="writing-mode: tb; glyph-orientation-vertical: 0;">
  12m (4240.01m)
  </text>
  <text x="4323.0" y="174.0" style="writing-mode: tb; glyph-orientation-vertical: 0;">
  12m (4259.13m)
  </text>
  <text x="4363.5" y="163.5" style="writing-mode: tb; glyph-orientation-vertical: 0;">
  13m (4277.79m)
  </text>
  <text x="4404.0" y="174.0" style="writing-mode: tb; glyph-orientation-vertical: 0;">
  12m (4290.51m)
  </text>
  <text x="4444.5" y="163.5" style="writing-mode: tb; glyph-orientation-vertical: 0;">
  13m (4632.85m)
  </text>
  <text x="4485.0" y="163.5" style="writing-mode: tb; glyph-orientation-vertical: 0;">
  13m (4644.82m)
  </text>
  <text x="4525.5" y="163.5" style="writing-mode: tb; glyph-orientation-vertical: 0;">
  13m (4655.48m)
  </text>
  <text x="4566.0" y="163.5" style="writing-mode: tb; glyph-orientation-vertical: 0;">
  13m (4666.3m)
  </text>
  <text x="4606.5" y="163.5" style="writing-mode: tb; glyph-orientation-vertical: 0;">
  13m (4676.9m)
  </text>
  <text x="4647.0" y="163.5" style="writing-mode: tb; glyph-orientation-vertical: 0;">
  13m (4689.62m)
  </text>
  <text x="4687.5" y="163.5" style="writing-mode: tb; glyph-orientation-vertical: 0;">
  13m (4702.15m)
  </text>
  <text x="4728.0" y="153.0" style="writing-mode: tb; glyph-orientation-vertical: 0;">
  14m (4712.28m)
  </text>
  <text x="4768.5" y="153.0" style="writing-mode: tb; glyph-orientation-vertical: 0;">
  14m (4723.39m)
  </text>
  <text x="4809.0" y="153.0" style="writing-mode: tb; glyph-orientation-vertical: 0;">
  14m (4737.65m)
  </text>
  <text x="4849.5" y="153.0" style="writing-mode: tb; glyph-orientation-vertical: 0;">
  14m (4751.05m)
  </text>
  <text x="4890.0" y="153.0" style="writing-mode: tb; glyph-orientation-vertical: 0;">
  14m (4768.63m)
  </text>
  <text x="4930.5" y="174.0" style="writing-mode: tb; glyph-orientation-vertical: 0;">
  12m (5412.24m)
  </text>
</svg>